<svg xmlns="http://www.w3.org/2000/svg" xmlns:xlink="http://www.w3.org/1999/xlink" width="1280" zoomAndPan="magnify" viewBox="0 0 960 599.999999" height="800" preserveAspectRatio="xMidYMid meet" version="1.0"><defs><clipPath id="c3806c67df"><path d="M 326.167969 37.632812 L 607.417969 37.632812 L 607.417969 562.632812 L 326.167969 562.632812 Z M 326.167969 37.632812 " clip-rule="nonzero"/></clipPath></defs><rect x="-96" width="1152" fill="#ffffff" y="-60" height="719.999999" fill-opacity="1"/><rect x="-96" width="1152" fill="#ffffff" y="-60" height="719.999999" fill-opacity="1"/><g clip-path="url(#c3806c67df)"><path fill="#2b3990" d="M 537.109375 37.632812 C 463.269531 37.632812 419.964844 76.671875 419.964844 165.621094 L 419.964844 243.882812 L 326.304688 243.882812 L 326.304688 337.632812 L 419.964844 337.632812 L 419.964844 562.632812 L 513.621094 562.632812 L 513.621094 337.632812 L 588.550781 337.632812 L 607.28125 243.882812 L 513.621094 243.882812 L 513.621094 181.480469 C 513.621094 147.972656 524.539062 131.382812 555.953125 131.382812 L 607.28125 131.382812 L 607.28125 41.476562 C 598.402344 40.277344 572.53125 37.632812 537.109375 37.632812 Z M 537.109375 37.632812 " fill-opacity="1" fill-rule="nonzero"/></g></svg>