<svg xmlns="http://www.w3.org/2000/svg" xmlns:xlink="http://www.w3.org/1999/xlink" width="1280" zoomAndPan="magnify" viewBox="0 0 960 599.999999" height="800" preserveAspectRatio="xMidYMid meet" version="1.0"><rect x="-96" width="1152" fill="#ffffff" y="-60" height="719.999999" fill-opacity="1"/><rect x="-96" width="1152" fill="#ffffff" y="-60" height="719.999999" fill-opacity="1"/><path fill="#ed155a" d="M -12.15625 410.808594 C -11.292969 437.632812 -12.023438 439.25 -12.101562 456.945312 C -12.15625 470.519531 -6.234375 473.730469 -6.960938 490.425781 C -7.828125 510.328125 -5.625 508.492188 -6.097656 515.523438 C -6.960938 528.503906 -9.558594 544.210938 -9.558594 551.871094 C -9.558594 564.027344 -11.324219 582.347656 -10.425781 594.277344 C -9.4375 607.351562 -12.15625 604.660156 -8.695312 626.296875 C -5.230469 647.933594 -6.960938 648.566406 -6.960938 661.777344 C -6.960938 666.472656 -16.109375 675.875 -0.902344 679.085938 C 39.707031 687.664062 127.636719 675.878906 169.675781 674.058594 C 209.101562 672.351562 235.957031 678.011719 274.453125 674.757812 C 304.933594 672.183594 352.410156 684.316406 384.421875 683.414062 C 439.40625 681.867188 484.710938 671.492188 539.417969 669.566406 C 566.527344 668.613281 613.535156 667.519531 640.726562 667.835938 C 662.800781 668.09375 672.808594 673.023438 694.414062 673.894531 C 717.03125 674.804688 756.597656 671.457031 778.40625 670.433594 C 804.8125 669.195312 833.0625 662.511719 859.167969 664.351562 C 872.558594 665.292969 959.882812 670.789062 968.859375 666.996094 C 973.300781 665.121094 969.765625 662.644531 972.363281 642.738281 C 974.960938 622.835938 972.347656 622.015625 968.859375 604.335938 C 966.722656 593.5 972.148438 568.0625 970.632812 556.195312 C 967.613281 532.53125 961.421875 527.714844 962.839844 506.003906 C 963.964844 488.820312 968.859375 472.269531 968.859375 455.179688 C 968.859375 441.09375 970.632812 433.96875 970.632812 419.460938 C 970.632812 417.347656 975.613281 395.625 968.902344 394.363281 C 956.949219 392.117188 911.316406 399.746094 899.910156 400.460938 C 845.140625 403.886719 815.597656 396.21875 759.355469 395.230469 C 735.730469 394.8125 685.359375 403.773438 661.722656 403.109375 C 623.753906 402.039062 560.152344 409.898438 529.027344 409.074219 C 486.726562 407.953125 477.664062 398.195312 425.984375 396.960938 C 415.46875 396.707031 371.359375 394.492188 360.855469 394.28125 C 320.921875 393.480469 280.609375 395.398438 240.542969 397.625 C 209.359375 399.355469 178.328125 401.269531 147.738281 402.226562 C 122.761719 403.007812 94.0625 403.992188 69.386719 403.992188 C 39.84375 403.992188 -12.394531 403.414062 -12.15625 410.808594 Z M -12.15625 410.808594 " fill-opacity="1" fill-rule="nonzero"/></svg>