<svg xmlns="http://www.w3.org/2000/svg" xmlns:xlink="http://www.w3.org/1999/xlink" width="1280" zoomAndPan="magnify" viewBox="0 0 960 599.999999" height="800" preserveAspectRatio="xMidYMid meet" version="1.0"><defs><clipPath id="5a5613470a"><path d="M 209 28.648438 L 751.648438 28.648438 L 751.648438 571.648438 L 209 571.648438 Z M 209 28.648438 " clip-rule="nonzero"/></clipPath></defs><rect x="-96" width="1152" fill="#ffffff" y="-60" height="719.999999" fill-opacity="1"/><rect x="-96" width="1152" fill="#ffffff" y="-60" height="719.999999" fill-opacity="1"/><g clip-path="url(#5a5613470a)"><path fill="#2b3990" d="M 706.285156 28.648438 L 254.285156 28.648438 C 229.292969 28.648438 209.191406 49.019531 209.191406 73.738281 L 209.191406 526.558594 C 209.191406 551.546875 229.566406 571.648438 254.285156 571.648438 L 706.015625 571.648438 C 731.003906 571.648438 751.105469 551.277344 751.105469 526.558594 L 751.105469 73.738281 C 751.378906 49.019531 731.277344 28.648438 706.285156 28.648438 Z M 369.730469 476.574219 L 289.597656 476.574219 L 289.597656 235.90625 L 369.730469 235.90625 Z M 329.527344 206.839844 C 304.265625 206.839844 283.890625 186.46875 283.890625 161.207031 C 283.890625 135.945312 304.265625 115.570312 329.527344 115.570312 C 354.789062 115.570312 375.160156 135.945312 375.160156 161.207031 C 375.160156 186.46875 354.789062 206.839844 329.527344 206.839844 Z M 671.246094 476.574219 L 590.839844 476.574219 L 588.9375 333.695312 C 588.9375 333.695312 590.839844 295.667969 549.28125 295.9375 C 507.71875 296.210938 502.015625 333.695312 502.015625 333.695312 L 502.015625 476.574219 L 421.066406 476.574219 L 421.066406 235.90625 L 498.753906 235.90625 L 498.753906 269.046875 C 498.753906 269.046875 502.015625 258.179688 519.941406 245.414062 C 537.871094 232.648438 567.480469 229.929688 580.246094 230.472656 C 593.011719 231.015625 610.398438 228.84375 639.464844 248.945312 C 670.699219 270.40625 671.515625 326.632812 671.515625 326.632812 Z M 671.246094 476.574219 " fill-opacity="1" fill-rule="nonzero"/></g></svg>